<?xml version="1.0" encoding="UTF-8"?>
<svg id="Layer_2" data-name="Layer 2" xmlns="http://www.w3.org/2000/svg" viewBox="0 0 130.82 130.93">
    <defs>
        <style>
            .cls-1 {
            fill: #fff;
            }

            .cls-2 {
            fill: #fc0;
            }

            .cls-3 {
            fill: #231f20;
            }
        </style>
    </defs>
    <g id="Layer_1-2" data-name="Layer 1">
        <path d="m9.15,60.94v64.15l5.69,5.85h31.71c23.23,0,33.14-7.15,33.19-18.92.03-4.84-.48-9.38-3.96-12.61l-5.56-5.58v-.07c5.58-2.16,7.22-6.26,7.22-11.34,0-3.78-1.19-6.72-3.36-8.95l-5.52-5.66c-5.05-5.41-15.53-6.86-27.82-6.86H9.15Zm36.32,12.19c1.79,0,3.37.24,4.73.69.3.97.4,2.04.4,3.17,0,3.08-1.73,6.08-4.59,7.69-.87.52-1.78.86-2.7,1.11v-12.46c.83,0,1.34-.2,2.16-.2Zm-.43,25.04c1.69.04,3.27.4,4.93,1.3,1.02,2.07,1.57,4.4,1.57,6.95,0,3.92-1.48,7.39-4.1,9.79-1.34,1.23-2.69,2.04-4.13,2.53v-20.51c.59-.05,1.16-.07,1.73-.06Z"/>
        <path class="cls-2"
              d="m9.38,60.85v64.16h31.72c23.21,0,33.14-7.11,33.16-18.93.06-7.98-1.49-15.17-15.03-16.96,10.02-1.37,12.76-6.17,12.76-12.62,0-12.67-13.7-15.65-31-15.65H9.38Zm30.74,6.07c7.09,0,10.83,3.72,10.83,9.7,0,3.08-1.73,6.07-4.59,7.69-2.62,1.54-5.54,1.65-8.41,1.75v-18.95c.84,0,1.36-.19,2.17-.19Zm-1.02,25.01c2.62-.05,4.95.66,7.61,2.77,3.29,2.59,5.21,6.64,5.21,11.35,0,3.92-1.49,7.39-4.11,9.79-3.02,2.78-6.2,3.37-9.84,2.98v-26.82c.39-.04.76-.06,1.14-.07Z"/>
        <path class="cls-2"
              d="m9.38,60.94h-.02v64.18h31.74c23.21,0,33.16-7.11,33.18-18.95,0-.14,0-.29,0-.43,0-7.8-1.75-14.79-15.04-16.55v.02s0,.02,0,.02c10.02-1.36,12.78-6.18,12.78-12.64,0-6.34-3.43-10.27-9.03-12.59-5.59-2.33-13.35-3.07-22-3.07H9.36v.02h.02v.02h31.6c8.65,0,16.4.74,21.98,3.07,5.58,2.33,9,6.23,9,12.56,0,6.45-2.73,11.24-12.74,12.6v.04c13.28,1.76,15.01,8.71,15.01,16.51,0,.14,0,.29,0,.43-.01,11.81-9.93,18.9-33.14,18.91H9.4V60.94h-.02v.02-.02Z"/>
        <g>
            <path class="cls-3"
                  d="m39.82,57.48s-.34-.21-.98-.6c-.08-.05-.17-.1-.25-.16-.09-.06-.19-.12-.29-.18-.2-.13-.42-.26-.66-.41-.24-.15-.49-.31-.76-.48-.27-.17-.56-.35-.86-.54-1.21-.77-2.66-1.72-4.32-2.84-.41-.28-.84-.57-1.27-.87-.44-.3-.88-.61-1.34-.94-.23-.16-.46-.33-.69-.49-.12-.08-.23-.17-.35-.25-.12-.09-.24-.17-.36-.26-.24-.17-.48-.35-.72-.52-.24-.18-.49-.36-.74-.54-.99-.73-2.01-1.5-3.06-2.31-1.05-.81-2.12-1.67-3.21-2.57-2.18-1.8-4.43-3.76-6.66-5.92-1.11-1.08-2.22-2.2-3.31-3.37-1.09-1.18-2.16-2.41-3.19-3.69-.51-.65-1.02-1.3-1.51-1.98l-.18-.25-.18-.26c-.12-.17-.24-.34-.36-.52-.23-.35-.47-.7-.7-1.06-.23-.35-.45-.72-.67-1.09l-.32-.56c-.05-.09-.11-.19-.16-.28l-.15-.28c-.41-.76-.79-1.54-1.13-2.34-.34-.81-.64-1.64-.88-2.51-.24-.86-.42-1.76-.51-2.68,0-.06-.01-.11-.02-.17v-.17s-.03-.35-.03-.35v-.09s0-.09,0-.09v-.18s0-.35,0-.35c0-.12,0-.23.01-.35,0-.12,0-.23.02-.35l.04-.35.02-.18c0-.06.02-.12.03-.18.14-.94.4-1.87.79-2.73l.05-.12.03-.07.07-.13.07-.13s.01-.02.02-.04l.02-.04.05-.08.09-.17.05-.08s.03-.06.05-.08l.19-.3.05-.07.05-.07.1-.14.1-.14s.07-.09.1-.14c.07-.09.14-.18.21-.27l.22-.26c.3-.34.62-.67.96-.97l.12-.11s.09-.07.13-.11l.26-.21.26-.2.13-.1.13-.09.27-.19.27-.18.14-.09.14-.08.27-.16c.37-.21.74-.41,1.12-.58.75-.35,1.51-.64,2.27-.89,1.52-.49,3.03-.8,4.51-1.01,1.48-.21,2.93-.33,4.33-.38,2.81-.11,5.45.02,7.87.22,2.42.21,4.62.5,6.56.8,1.94.3,3.62.62,5,.9,1.38.28,2.46.52,3.19.68.73.17,1.13.26,1.13.26,0,0-.4-.06-1.14-.17-.74-.11-1.84-.26-3.23-.44-1.39-.17-3.09-.36-5.03-.51-1.94-.15-4.14-.27-6.53-.3-2.39-.02-4.98.06-7.67.37-1.35.15-2.72.37-4.09.68-1.37.31-2.74.7-4.05,1.24-.65.27-1.29.57-1.9.92-.31.17-.6.36-.89.55l-.21.15-.11.07-.1.08-.2.16-.2.16-.1.08-.09.08-.19.17-.18.17s-.06.06-.09.09l-.09.09c-.23.24-.44.49-.64.75l-.14.2-.13.2s-.05.07-.06.1l-.06.1-.06.1-.03.05-.03.05-.11.21s-.02.03-.02.05l-.02.05-.04.09-.02.05v.02s-.02.02-.02.03l-.06.14-.06.14-.03.07c.03-.06,0,0,0,0v.03c-.44,1.19-.51,2.5-.27,3.84.23,1.34.75,2.68,1.41,3.98.34.65.71,1.29,1.11,1.92l.15.23c.05.08.1.16.15.23l.32.46c.22.31.43.61.66.91.22.3.46.6.69.89.12.15.24.29.36.44l.18.22.18.22c.49.58,1,1.14,1.51,1.7,1.03,1.11,2.11,2.17,3.21,3.18,1.1,1.02,2.22,1.99,3.35,2.92,2.25,1.86,4.53,3.57,6.73,5.12,1.1.78,2.19,1.51,3.25,2.21,1.06.7,2.1,1.36,3.1,1.99.25.16.5.31.74.46.25.15.49.3.73.45.12.07.24.15.36.22.12.07.24.14.36.21.24.14.47.28.7.42.46.27.91.54,1.35.8.44.25.87.51,1.29.74,1.67.95,3.13,1.76,4.35,2.41.3.16.59.32.86.46.27.14.53.28.76.4.24.12.45.24.65.34.1.05.19.1.29.15.09.05.18.09.27.14.67.34,1.03.53,1.03.53l-3.86,6.85Z"/>
            <polygon class="cls-3" points="43.89 43.43 54.97 60.85 34.34 61.74 43.89 43.43"/>
        </g>
        <path class="cls-3"
              d="m109.49,36.41s.09.06.26.19c.17.12.43.3.77.54.67.48,1.65,1.19,2.87,2.12,1.22.94,2.69,2.1,4.32,3.5.81.7,1.67,1.47,2.55,2.3.44.41.89.85,1.34,1.3.45.45.9.92,1.36,1.4.46.49.91.99,1.37,1.52.46.53.91,1.07,1.36,1.64.89,1.14,1.77,2.37,2.56,3.73.4.68.77,1.39,1.11,2.13.34.74.64,1.53.89,2.35.06.21.12.41.17.62.03.11.06.21.08.32.02.11.05.21.07.32.02.11.04.22.06.33l.03.16c0,.05.02.11.03.17.02.11.03.22.05.33.01.11.03.22.04.34.04.45.07.91.06,1.38-.01.47-.05.94-.12,1.41-.07.47-.18.95-.33,1.41-.04.12-.07.23-.12.35l-.06.17-.03.09s0,0-.03.07v.04s-.07.14-.07.14l-.03.07s0,.02-.02.04l-.02.05-.08.18-.04.09-.04.08c-.43.89-1,1.72-1.67,2.45-.66.73-1.42,1.37-2.21,1.92-.8.55-1.63,1.02-2.49,1.43-.86.4-1.74.75-2.63,1.05-.44.15-.89.29-1.34.41-.45.13-.9.24-1.35.35-1.81.42-3.63.71-5.46.9-.91.1-1.82.17-2.73.22-.91.05-1.82.09-2.72.1-1.81.03-3.61,0-5.38-.08-3.55-.16-7.03-.52-10.36-.97-3.34-.46-6.54-1.02-9.56-1.63-3.02-.61-5.86-1.27-8.46-1.93-2.6-.66-4.98-1.32-7.07-1.93-2.1-.61-3.91-1.18-5.41-1.66-1.49-.48-2.66-.87-3.46-1.14-.79-.27-1.22-.42-1.22-.42l3.27-8.39s.39.17,1.13.49c.74.32,1.83.78,3.22,1.36,1.39.57,3.09,1.25,5.05,2,1.96.75,4.18,1.56,6.63,2.39,2.44.83,5.11,1.68,7.95,2.5,2.84.82,5.86,1.6,9,2.29,3.14.69,6.41,1.29,9.74,1.71,1.67.21,3.35.38,5.03.48.84.05,1.69.09,2.53.11.84.02,1.69.02,2.53,0,1.68-.04,3.35-.16,4.97-.41,1.62-.25,3.2-.61,4.66-1.16,1.45-.55,2.79-1.29,3.82-2.25.52-.48.96-1.02,1.3-1.61l.03-.05.03-.05.06-.1v-.02s.02-.02.03-.03l.03-.07.07-.14.02-.03s0,0,0,0l.03-.06.05-.12c.04-.08.07-.16.1-.24.13-.32.24-.64.31-.98.08-.34.14-.68.17-1.03.04-.35.05-.7.04-1.06,0-.09,0-.18,0-.27,0-.09-.01-.18-.02-.27,0-.04,0-.09,0-.13v-.13c-.02-.09-.03-.18-.04-.27-.01-.09-.02-.18-.04-.27-.01-.09-.03-.18-.04-.27-.03-.18-.07-.36-.1-.53-.15-.71-.36-1.41-.61-2.1-.25-.69-.54-1.36-.85-2.01-.63-1.31-1.36-2.54-2.13-3.7-.38-.58-.78-1.14-1.18-1.68-.4-.54-.8-1.07-1.21-1.58-.41-.51-.81-1-1.22-1.47-.41-.47-.81-.93-1.21-1.38-.8-.88-1.58-1.71-2.33-2.46-1.5-1.52-2.86-2.79-4-3.81-1.14-1.03-2.06-1.81-2.69-2.34-.31-.27-.56-.47-.72-.6-.16-.14-.25-.21-.25-.21Z"/>
        <g>
            <g>
                <path d="m31.11,24.84c.91,1.26,3.13,3.83,5.94,5.04,3.58,1.54,6.25.32,7.36-2.26,1.44-3.36-.8-6.13-3.84-7.44l-2.81-1.21,2.46-5.73,2.67,1.15c2.33.94,5.71,1.21,6.95-1.69.88-2.05.08-4.2-2.82-5.44-2.4-1.03-5.46-.91-7.04-.6l1.08-6.38c2.33-.56,6.41-.3,10.22,1.33,6.3,2.7,8.15,8.04,6.14,12.72-1.56,3.63-4.54,5.71-8.8,5.62l-.05.11c3.22,2.25,4.75,6.58,2.83,11.05-2.59,6.04-9.07,8.49-16.55,5.28-3.81-1.63-6.53-4.17-7.71-6.17l3.98-5.39Z"/>
                <path class="cls-1"
                      d="m34.84,36.42c-4.02-1.73-6.63-4.32-7.72-6.18h0s4-5.44,4-5.44l.02.03c.43.6,2.75,3.67,5.93,5.03s6.12.56,7.33-2.25c1.54-3.59-1.1-6.24-3.83-7.41l-2.83-1.22,2.48-5.77,2.7,1.16c2.44.98,5.72,1.13,6.92-1.67.94-2.19-.13-4.27-2.81-5.41-2.51-1.08-5.6-.88-7.03-.59h-.03s1.08-6.43,1.08-6.43h.01c2.28-.55,6.33-.34,10.23,1.33,2.99,1.28,5.14,3.23,6.2,5.63.98,2.23.97,4.75-.05,7.12-.79,1.84-1.93,3.26-3.4,4.21-1.5.98-3.33,1.46-5.41,1.42l-.03.07c1.61,1.13,2.8,2.8,3.33,4.7.58,2.04.4,4.24-.51,6.37-.64,1.5-1.53,2.79-2.63,3.83-1.1,1.04-2.38,1.81-3.82,2.29-3.01,1.01-6.51.72-10.12-.83Zm-7.68-6.19c1.1,1.85,3.69,4.43,7.69,6.15,7.2,3.09,13.84.97,16.52-5.27,1.79-4.16.65-8.59-2.82-11.02h-.01s.06-.15.06-.15h.02c4.13.08,7.17-1.86,8.78-5.61,1.81-4.23.62-9.79-6.13-12.69C47.38-.02,43.35-.23,41.08.31l-1.07,6.34c1.45-.28,4.53-.47,7.03.6,1.38.59,2.36,1.43,2.84,2.43.45.94.44,1.99,0,3.04-1.22,2.84-4.52,2.69-6.98,1.7l-2.65-1.14-2.44,5.69,2.79,1.2c1.6.69,2.88,1.74,3.61,2.95.83,1.39.91,2.95.24,4.51-.57,1.33-1.52,2.25-2.76,2.68-1.32.46-2.92.32-4.62-.41-3.15-1.35-5.46-4.36-5.93-5.02l-3.95,5.35Z"/>
            </g>
            <g>
                <path d="m82.72,22.53c-.75-.38-1.59-.68-2.72-1.04-6.37-2.05-10.64.41-13.13,4.08l.14.06c2.19-1.11,4.66-1.24,7.43-.05,4.94,2.12,7.37,7.96,4.33,15.05s-9.79,10.43-16.18,7.68c-7.84-3.37-8.79-11.8-5.29-19.95,2.75-6.41,7.09-10.9,11.73-12.95,4.28-1.84,8.81-1.88,13.54-.16,1.31.44,2.13.79,2.79,1.13l-2.64,6.15Zm-11.12,15.52c1.35-3.15,1.08-6.51-1.87-7.77-1.86-.8-3.96-.15-5.39,1.3-.36.34-.72.93-1.13,1.88-1.42,3.68-1.32,7.59,1.81,8.93,2.45,1.05,5.09-.86,6.58-4.33Z"/>
                <path class="cls-1"
                      d="m62.58,48.33c-1.9-.82-3.46-1.96-4.64-3.4-1.11-1.36-1.87-2.97-2.27-4.8-.38-1.74-.43-3.66-.14-5.69.28-1.98.87-4.03,1.75-6.09,1.34-3.12,3.08-5.85,5.16-8.12,2-2.17,4.21-3.8,6.58-4.85,4.26-1.83,8.82-1.88,13.56-.16.73.25,1.34.47,1.87.7.33.14.63.29.92.44h.02s-2.66,6.2-2.66,6.2h-.02c-.2-.11-.4-.21-.62-.3-.65-.28-1.39-.52-2.09-.75-7.37-2.37-11.36,1.5-13.09,4.04l.1.04c2.3-1.16,4.8-1.18,7.44-.04,2.5,1.07,4.33,3.09,5.17,5.67.9,2.79.61,6.04-.83,9.41s-3.85,5.98-6.8,7.42c-3.02,1.48-6.36,1.58-9.41.27Zm21.85-32.36c-.52-.22-1.13-.45-1.86-.7-4.73-1.72-9.28-1.66-13.53.16-4.84,2.14-9.11,6.86-11.72,12.94-3.89,9.06-1.81,16.87,5.28,19.92,6.19,2.66,13.13-.64,16.15-7.67,2.81-6.55,1.03-12.73-4.32-15.02-2.63-1.13-5.12-1.11-7.41.05h0s-.17-.07-.17-.07l.02-.02c1.37-2.02,3.09-3.43,5.12-4.19,2.36-.89,5.06-.85,8.04.1.7.22,1.45.47,2.1.75.22.09.41.18.6.28l2.62-6.11c-.28-.15-.58-.29-.9-.43Zm-19.42,26.44c-1.46-.63-2.36-1.87-2.62-3.6-.23-1.52.06-3.42.8-5.35.4-.94.76-1.54,1.13-1.89,1.53-1.55,3.65-2.06,5.41-1.3,1.39.6,2.27,1.7,2.56,3.19.26,1.35.02,2.98-.68,4.61-.73,1.71-1.78,3.08-2.94,3.87-1.21.82-2.48.98-3.67.47Zm4.71-12.11c-1.74-.75-3.85-.24-5.36,1.29-.37.35-.73.94-1.12,1.87-.74,1.92-1.03,3.82-.8,5.33.25,1.71,1.15,2.95,2.59,3.57,1.18.5,2.43.34,3.63-.47,1.16-.78,2.19-2.15,2.92-3.85s.93-3.24.68-4.58c-.29-1.48-1.16-2.57-2.53-3.16Z"/>
            </g>
            <g>
                <path d="m106,45.84c-4.53,10.56-11.32,16.24-18.84,13.01s-7.56-12.64-3.46-22.33c4.24-9.88,11.23-16.16,18.84-12.89,7.89,3.38,7.47,12.85,3.46,22.21Zm-15.37-6.35c-3.41,7.81-3.38,12.24-.7,13.39s5.79-2.12,9.13-9.9,3.56-12.17.79-13.35c-2.54-1.09-5.86,1.9-9.22,9.86Z"/>
                <path class="cls-1"
                      d="m87.15,58.87c-1.84-.79-3.3-1.97-4.34-3.51-.97-1.45-1.58-3.22-1.8-5.26-.41-3.8.51-8.5,2.67-13.59,2.19-5.11,5.02-9.05,8.16-11.38,1.66-1.23,3.39-2,5.14-2.27,1.85-.29,3.72-.04,5.57.76s3.4,2.02,4.44,3.59c.97,1.46,1.57,3.24,1.76,5.29.36,3.73-.59,8.35-2.74,13.36-2.3,5.36-5.17,9.4-8.31,11.69-1.63,1.19-3.34,1.91-5.07,2.15-1.8.25-3.65-.03-5.49-.82Zm15.38-35.22c-3.58-1.53-7.26-1.01-10.67,1.51-3.14,2.33-5.96,6.26-8.15,11.37-2.15,5.08-3.07,9.77-2.66,13.56.46,4.26,2.51,7.2,6.11,8.74s7.17,1.11,10.52-1.33c3.13-2.28,6-6.32,8.29-11.67,2.15-5,3.09-9.61,2.73-13.33-.41-4.29-2.49-7.26-6.18-8.85Zm-12.61,29.26c-.74-.32-1.28-.89-1.6-1.69-.43-1.09-.47-2.62-.1-4.54.38-1.99,1.18-4.41,2.39-7.18,2.34-5.53,4.77-8.94,7.03-9.85.78-.31,1.53-.32,2.22-.02,1.38.59,2.01,2.04,1.87,4.31-.14,2.24-1.03,5.3-2.65,9.08s-3.27,6.64-4.82,8.3c-1.53,1.65-2.99,2.19-4.34,1.61Zm9.92-23.25c-.68-.29-1.42-.28-2.19.02-2.25.91-4.67,4.3-7.01,9.82-1.21,2.77-2.01,5.19-2.39,7.18-.36,1.91-.33,3.43.1,4.52.31.79.84,1.36,1.57,1.67,1.33.57,2.77.03,4.29-1.6,1.54-1.66,3.16-4.45,4.81-8.29,1.62-3.78,2.51-6.83,2.65-9.06.14-2.24-.48-3.68-1.85-4.26Z"/>
            </g>
        </g>
        <g>
            <path class="cls-1"
                  d="m119.58,27.3c-.78,1.81-2.88,2.65-4.69,1.87s-2.65-2.88-1.87-4.69,2.88-2.65,4.69-1.87,2.65,2.88,1.87,4.69Z"/>
            <path d="m114.36,30.42c-2.49-1.07-3.65-3.97-2.58-6.46s3.97-3.65,6.46-2.58,3.65,3.97,2.58,6.46-3.97,3.65-6.46,2.58Zm2.82-6.56c-1.12-.48-2.43.04-2.92,1.16s.04,2.43,1.16,2.92,2.43-.04,2.92-1.16-.04-2.43-1.16-2.92Z"/>
        </g>
    </g>
</svg>