<?xml version="1.0" encoding="utf-8"?>
<!-- Generator: Adobe Illustrator 27.5.0, SVG Export Plug-In . SVG Version: 6.00 Build 0)  -->
<svg version="1.1" id="Layer_1" xmlns="http://www.w3.org/2000/svg" x="0px" y="0px"
     viewBox="0 0 500 500" style="enable-background:new 0 0 500 500;" xml:space="preserve">
<style type="text/css">
	.st0{fill:#FFCC00;}
	.st1{fill:#231F20;}
	.st2{fill:#FFFFFF;}
</style>
    <path id="XMLID_11_" d="M388.8,213.7c-21,0-37.9,15-37.9,33.4c0,8.5,3.6,16.3,9.6,22.2l5.5,5.7c7,7,17.2,11.4,28.5,11.4
	c21,0,37.9-14.9,37.9-33.4c0-8.7-3.7-16.5-9.9-22.4l-4.2-4.3C411.4,218.5,400.8,213.7,388.8,213.7z M186.4,215v64.1l5.7,5.9h11.7
	v-31.1l11.7,25.2l5.7,5.9h9.2l11.7-24.8v19l5.7,5.9h28.4v-64.1l-5.7-5.8h-27l-12.8,24.8l-8.8-18.9l-5.7-5.9H186.4z M121.1,215v43
	c0,6.4,1.6,11.5,5.1,15.2l0.6,0.6l4.6,4.6c4.4,5.2,12,7.9,23.1,7.9c21.1,0,27.4-7.5,27.4-22.4v-43.1l-5.7-5.8h-11.6v48
	c0,4.7-1.6,10.6-7.6,10.6c-0.4,0-0.8,0-1.2-0.1c-0.4-1.5-0.6-3.1-0.6-4.6v-48l-5.7-5.8H121.1z M280.7,215v64.1l5.7,5.8h31.7
	c23.2,0,33.1-7.1,33.2-18.9c0-4.8-0.5-9.4-4-12.6l-5.6-5.6v-0.1c5.6-2.2,7.2-6.3,7.2-11.3c0-3.8-1.2-6.7-3.4-9l-5.5-5.7
	c-5-5.4-15.5-6.9-27.8-6.9H280.7z M394.6,225.9h0.6c1.7,4.8,2.2,12.3,2.2,21.2c0,15.8-1.7,27-8.6,27c-0.2,0-0.4,0-0.6,0
	c-1.7-4.8-2.2-12.2-2.2-21.1C386,237.1,387.7,225.9,394.6,225.9z M317,226.8c1.8,0,3.4,0.2,4.7,0.7c0.3,1,0.4,2,0.4,3.2
	c0,3.1-1.7,6.1-4.6,7.7c-0.9,0.5-1.8,0.9-2.7,1.1V227C315.7,227,316.2,226.8,317,226.8z M316.6,251.9c1.7,0,3.3,0.4,4.9,1.3
	c1,2.1,1.6,4.4,1.6,7c0,3.9-1.5,7.4-4.1,9.8c-1.3,1.2-2.7,2-4.1,2.5v-20.5C315.5,251.9,316,251.9,316.6,251.9z M46.4,215v64.1
	l5.7,5.8h31.7c23.2,0,33.1-7.1,33.2-18.9c0-4.8-0.5-9.4-4-12.6l-5.6-5.6v-0.1c5.6-2.2,7.2-6.3,7.2-11.3c0-3.8-1.2-6.7-3.4-9
	l-5.5-5.7c-5-5.4-15.5-6.9-27.8-6.9H46.4z M82.7,227.2c1.8,0,3.4,0.2,4.7,0.7c0.3,1,0.4,2,0.4,3.2c0,3.1-1.7,6.1-4.6,7.7
	c-0.9,0.5-1.8,0.9-2.7,1.1v-12.5C81.4,227.4,81.9,227.2,82.7,227.2z M82.3,252.3c1.7,0,3.3,0.4,4.9,1.3c1,2.1,1.6,4.4,1.6,7
	c0,3.9-1.5,7.4-4.1,9.8c-1.3,1.2-2.7,2-4.1,2.5v-20.5C81.2,252.3,81.7,252.2,82.3,252.3z"/>
    <path id="XMLID_20_" class="st0" d="M388.8,213.7c-21,0-37.9,15-37.9,33.4c0,18.4,17,33.3,37.9,33.3c21,0,38-14.9,38-33.3
	C426.8,228.6,409.8,213.7,388.8,213.7z M186.4,215v64.1h11.8v-37.5l17.4,37.5h9.1l17.4-36.9v36.9h28.3V215h-27l-14.4,27.8L216.2,215
	H186.4z M121.1,215v43c0,14.8,8.8,22.5,27.6,22.5c21.1,0,27.4-7.6,27.4-22.5v-43h-11.6v48c0,4.7-1.6,10.6-7.6,10.6
	c-5.9,0-7.5-5.9-7.5-10.5v-48H121.1z M280.7,215v64.2h31.7c23.2,0,33.1-7.1,33.2-18.9c0.1-8-1.5-15.2-15-17
	c10-1.4,12.8-6.2,12.8-12.6c0-12.7-13.7-15.6-31-15.6H280.7z M388.8,220c6.8,0,8.6,11.3,8.6,27.1c0,15.7-1.7,27-8.6,27
	c-6.9,0-8.6-11.3-8.6-27C380.3,231.3,382,220,388.8,220z M311.3,221c7.1,0,10.8,3.7,10.8,9.7c0,3.1-1.7,6.1-4.6,7.7
	c-2.6,1.5-5.5,1.6-8.4,1.7v-18.9C310,221.2,310.5,221,311.3,221z M310.3,246c2.6-0.1,5,0.7,7.6,2.8c3.3,2.6,5.2,6.6,5.2,11.4
	c0,3.9-1.5,7.4-4.1,9.8c-3,2.8-6.2,3.4-9.8,3v-26.8C309.6,246,309.9,246,310.3,246z M46.6,214.9v64.2h31.7
	c23.2,0,33.1-7.1,33.2-18.9c0.1-8-1.5-15.2-15-17c10-1.4,12.8-6.2,12.8-12.6c0-12.7-13.7-15.6-31-15.6H46.6z M77.4,221
	c7.1,0,10.8,3.7,10.8,9.7c0,3.1-1.7,6.1-4.6,7.7c-2.6,1.5-5.5,1.6-8.4,1.7v-18.9C76,221.2,76.5,221,77.4,221z M76.3,246
	c2.6-0.1,5,0.7,7.6,2.8c3.3,2.6,5.2,6.6,5.2,11.4c0,3.9-1.5,7.4-4.1,9.8c-3,2.8-6.2,3.4-9.8,3v-26.8C75.6,246,76,246,76.3,246z"/>
    <path id="XMLID_29_" class="st0" d="M388.8,213.7L388.8,213.7c-10.5,0-20,3.7-26.8,9.8c-6.9,6-11.1,14.4-11.1,23.6
	c0,9.2,4.3,17.6,11.1,23.6c6.9,6,16.4,9.8,26.8,9.8c10.5,0,20-3.7,26.9-9.8c6.9-6,11.1-14.4,11.1-23.6c0-9.2-4.2-17.6-11.1-23.6
	C408.8,217.4,399.3,213.7,388.8,213.7L388.8,213.7L388.8,213.7c10.5,0,20,3.8,26.8,9.8c6.9,6,11.1,14.4,11.1,23.6
	c0,9.2-4.2,17.5-11.1,23.6c-6.9,6-16.3,9.8-26.8,9.8c-10.5,0-20-3.7-26.8-9.8c-6.9-6-11.1-14.4-11.1-23.6c0-9.2,4.2-17.5,11.1-23.6
	C368.9,217.4,378.4,213.7,388.8,213.7L388.8,213.7z M186.4,215L186.4,215l0,64.1h11.8v-37.4l17.4,37.4h9.2l17.4-36.9v36.9h28.4
	v-64.1h-27l-14.4,27.8l-12.9-27.8L186.4,215L186.4,215L186.4,215L186.4,215l29.8,0l12.9,27.8l14.4-27.8h26.9V279h-28.3v-36.9l0,0
	L224.7,279h-9.1l-17.4-37.5l0,0V279h-11.7L186.4,215L186.4,215L186.4,215L186.4,215z M121.1,215L121.1,215l0,43
	c0,7.4,2.2,13,6.7,16.8c4.6,3.8,11.5,5.7,20.9,5.7l0,0c10.6,0,17.4-1.9,21.6-5.6c4.2-3.8,5.8-9.4,5.8-16.8V215h-11.6v48v0
	c0,2.3-0.4,5-1.5,7c-1.1,2.1-3,3.5-6,3.5c-2.9,0-4.8-1.5-5.9-3.5c-1.1-2.1-1.6-4.7-1.6-7v-48L121.1,215L121.1,215L121.1,215
	L121.1,215l28.3,0v48c0,2.3,0.4,5,1.6,7c1.1,2.1,3,3.5,6,3.5c3,0,4.9-1.5,6-3.6c1.1-2.1,1.6-4.7,1.6-7v0V215h11.5v43
	c0,14.9-6.3,22.4-27.4,22.4l0,0c-18.8,0-27.6-7.7-27.6-22.4L121.1,215L121.1,215L121.1,215L121.1,215z M280.7,215L280.7,215l0,64.2
	h31.7c23.2,0,33.2-7.1,33.2-18.9c0-0.1,0-0.3,0-0.4c0-7.8-1.7-14.8-15-16.6l0,0l0,0c10-1.4,12.8-6.2,12.8-12.6
	c0-6.3-3.4-10.3-9-12.6c-5.6-2.3-13.3-3.1-22-3.1L280.7,215L280.7,215L280.7,215L280.7,215l31.6,0c8.6,0,16.4,0.7,22,3.1
	c5.6,2.3,9,6.2,9,12.6c0,6.4-2.7,11.2-12.7,12.6l0,0c13.3,1.8,15,8.7,15,16.5c0,0.1,0,0.3,0,0.4c0,11.8-9.9,18.9-33.1,18.9h-31.7
	L280.7,215L280.7,215L280.7,215L280.7,215z M388.8,220L388.8,220c3.4,0,5.5,2.8,6.8,7.6c1.3,4.8,1.7,11.6,1.7,19.5
	c0,7.9-0.4,14.6-1.7,19.4c-1.3,4.8-3.4,7.6-6.8,7.6c-3.4,0-5.5-2.8-6.8-7.6c-1.3-4.8-1.7-11.5-1.7-19.4c0-7.9,0.4-14.7,1.7-19.5
	C383.3,222.8,385.4,220,388.8,220L388.8,220L388.8,220c-3.4,0-5.6,2.8-6.9,7.6c-1.3,4.8-1.7,11.6-1.7,19.5c0,7.9,0.4,14.6,1.7,19.4
	c1.3,4.8,3.4,7.6,6.9,7.6c3.4,0,5.6-2.8,6.9-7.6c1.3-4.8,1.7-11.5,1.7-19.4c0-7.9-0.4-14.7-1.7-19.5
	C394.4,222.8,392.3,220,388.8,220L388.8,220z M311.3,221L311.3,221c7.1,0,10.8,3.7,10.8,9.7c0,3.1-1.7,6.1-4.6,7.7
	c-2.6,1.5-5.5,1.6-8.4,1.7l0,0h0v-18.9h0v0C310,221.2,310.5,221,311.3,221L311.3,221L311.3,221c-0.8,0-1.3,0.2-2.2,0.2h0v19l0,0
	c2.9-0.1,5.8-0.2,8.4-1.8c2.9-1.6,4.6-4.6,4.6-7.7c0-3-0.9-5.4-2.8-7.1C317.6,221.9,314.9,221,311.3,221L311.3,221z M310.3,246
	L310.3,246c0.1,0,0.2,0,0.3,0c2.5,0,4.8,0.7,7.3,2.8c3.3,2.6,5.2,6.6,5.2,11.3c0,3.9-1.5,7.4-4.1,9.8c-2.5,2.3-5.1,3.1-7.9,3.1
	c-0.6,0-1.3,0-1.9-0.1l0,0h0v-26.8h0l0,0C309.6,246.1,309.9,246,310.3,246L310.3,246L310.3,246c-0.4,0-0.8,0-1.1,0.1l0,0v26.9l0,0
	c0.7,0.1,1.3,0.1,1.9,0.1c2.9,0,5.5-0.8,7.9-3.1c2.6-2.4,4.1-5.9,4.1-9.8c0-4.7-1.9-8.8-5.2-11.4c-2.6-2-4.8-2.8-7.4-2.8
	C310.5,246,310.4,246,310.3,246L310.3,246z M46.6,215L46.6,215l0,64.2h31.7c23.2,0,33.2-7.1,33.2-18.9c0-0.1,0-0.3,0-0.4
	c0-7.8-1.7-14.8-15-16.6l0,0l0,0c10-1.4,12.8-6.2,12.8-12.6c0-6.3-3.4-10.3-9-12.6c-5.6-2.3-13.3-3.1-22-3.1L46.6,215L46.6,215
	L46.6,215L46.6,215l31.6,0c8.6,0,16.4,0.7,22,3.1c5.6,2.3,9,6.2,9,12.6c0,6.4-2.7,11.2-12.7,12.6l0,0c13.3,1.8,15,8.7,15,16.5
	c0,0.1,0,0.3,0,0.4c0,11.8-9.9,18.9-33.1,18.9H46.6L46.6,215L46.6,215L46.6,215L46.6,215z"/>
    <g>
	<path class="st1" d="M385.4,211.8c0,0-0.3-0.2-1-0.6c-0.1,0-0.2-0.1-0.3-0.2c-0.1-0.1-0.2-0.1-0.3-0.2c-0.2-0.1-0.4-0.3-0.7-0.4
		c-0.2-0.1-0.5-0.3-0.8-0.5c-0.3-0.2-0.6-0.4-0.9-0.5c-1.2-0.8-2.7-1.7-4.3-2.8c-0.4-0.3-0.8-0.6-1.3-0.9c-0.4-0.3-0.9-0.6-1.3-0.9
		c-0.2-0.2-0.5-0.3-0.7-0.5c-0.1-0.1-0.2-0.2-0.4-0.3c-0.1-0.1-0.2-0.2-0.4-0.3c-0.2-0.2-0.5-0.3-0.7-0.5c-0.2-0.2-0.5-0.4-0.7-0.5
		c-1-0.7-2-1.5-3.1-2.3c-1-0.8-2.1-1.7-3.2-2.6c-2.2-1.8-4.4-3.8-6.7-5.9c-1.1-1.1-2.2-2.2-3.3-3.4c-1.1-1.2-2.2-2.4-3.2-3.7
		c-0.5-0.6-1-1.3-1.5-2l-0.2-0.3l-0.2-0.3c-0.1-0.2-0.2-0.3-0.4-0.5c-0.2-0.4-0.5-0.7-0.7-1.1c-0.2-0.4-0.4-0.7-0.7-1.1l-0.3-0.6
		c-0.1-0.1-0.1-0.2-0.2-0.3l-0.2-0.3c-0.4-0.8-0.8-1.5-1.1-2.3c-0.3-0.8-0.6-1.6-0.9-2.5c-0.2-0.9-0.4-1.8-0.5-2.7
		c0-0.1,0-0.1,0-0.2l0-0.2l0-0.3l0-0.1l0-0.1l0-0.2l0-0.3c0-0.1,0-0.2,0-0.4c0-0.1,0-0.2,0-0.4l0-0.4l0-0.2c0-0.1,0-0.1,0-0.2
		c0.1-0.9,0.4-1.9,0.8-2.7l0.1-0.1l0-0.1l0.1-0.1l0.1-0.1c0,0,0,0,0,0l0,0l0-0.1l0.1-0.2l0-0.1c0,0,0-0.1,0-0.1l0.2-0.3l0-0.1l0-0.1
		l0.1-0.1l0.1-0.1c0,0,0.1-0.1,0.1-0.1c0.1-0.1,0.1-0.2,0.2-0.3l0.2-0.3c0.3-0.3,0.6-0.7,1-1l0.1-0.1c0,0,0.1-0.1,0.1-0.1l0.3-0.2
		l0.3-0.2l0.1-0.1l0.1-0.1l0.3-0.2l0.3-0.2l0.1-0.1l0.1-0.1l0.3-0.2c0.4-0.2,0.7-0.4,1.1-0.6c0.8-0.4,1.5-0.6,2.3-0.9
		c1.5-0.5,3-0.8,4.5-1c1.5-0.2,2.9-0.3,4.3-0.4c2.8-0.1,5.4,0,7.9,0.2c2.4,0.2,4.6,0.5,6.6,0.8c1.9,0.3,3.6,0.6,5,0.9
		c1.4,0.3,2.5,0.5,3.2,0.7c0.7,0.2,1.1,0.3,1.1,0.3s-0.4-0.1-1.1-0.2c-0.7-0.1-1.8-0.3-3.2-0.4c-1.4-0.2-3.1-0.4-5-0.5
		c-1.9-0.2-4.1-0.3-6.5-0.3c-2.4,0-5,0.1-7.7,0.4c-1.3,0.2-2.7,0.4-4.1,0.7c-1.4,0.3-2.7,0.7-4.1,1.2c-0.7,0.3-1.3,0.6-1.9,0.9
		c-0.3,0.2-0.6,0.4-0.9,0.5l-0.2,0.1l-0.1,0.1l-0.1,0.1l-0.2,0.2l-0.2,0.2l-0.1,0.1l-0.1,0.1l-0.2,0.2l-0.2,0.2c0,0-0.1,0.1-0.1,0.1
		l-0.1,0.1c-0.2,0.2-0.4,0.5-0.6,0.8l-0.1,0.2l-0.1,0.2c0,0,0,0.1-0.1,0.1l-0.1,0.1l-0.1,0.1l0,0.1l0,0.1l-0.1,0.2c0,0,0,0,0,0l0,0
		l0,0.1l0,0l0,0c0,0,0,0,0,0l-0.1,0.1l-0.1,0.1l0,0.1c0-0.1,0,0,0,0l0,0c-0.4,1.2-0.5,2.5-0.3,3.8c0.2,1.3,0.7,2.7,1.4,4
		c0.3,0.6,0.7,1.3,1.1,1.9l0.2,0.2c0.1,0.1,0.1,0.2,0.2,0.2l0.3,0.5c0.2,0.3,0.4,0.6,0.7,0.9c0.2,0.3,0.5,0.6,0.7,0.9
		c0.1,0.1,0.2,0.3,0.4,0.4l0.2,0.2l0.2,0.2c0.5,0.6,1,1.1,1.5,1.7c1,1.1,2.1,2.2,3.2,3.2c1.1,1,2.2,2,3.3,2.9
		c2.3,1.9,4.5,3.6,6.7,5.1c1.1,0.8,2.2,1.5,3.2,2.2c1.1,0.7,2.1,1.4,3.1,2c0.3,0.2,0.5,0.3,0.7,0.5c0.2,0.2,0.5,0.3,0.7,0.4
		c0.1,0.1,0.2,0.1,0.4,0.2c0.1,0.1,0.2,0.1,0.4,0.2c0.2,0.1,0.5,0.3,0.7,0.4c0.5,0.3,0.9,0.5,1.4,0.8c0.4,0.3,0.9,0.5,1.3,0.7
		c1.7,1,3.1,1.8,4.3,2.4c0.3,0.2,0.6,0.3,0.9,0.5c0.3,0.1,0.5,0.3,0.8,0.4c0.2,0.1,0.5,0.2,0.7,0.3c0.1,0.1,0.2,0.1,0.3,0.1
		c0.1,0,0.2,0.1,0.3,0.1c0.7,0.3,1,0.5,1,0.5L385.4,211.8z"/>
        <g>
		<polygon class="st1" points="389.5,197.8 400.6,215.2 379.9,216.1 		"/>
	</g>
</g>
    <path class="st1" d="M455.1,190.8c0,0,0.1,0.1,0.3,0.2c0.2,0.1,0.4,0.3,0.8,0.5c0.7,0.5,1.6,1.2,2.9,2.1c1.2,0.9,2.7,2.1,4.3,3.5
	c0.8,0.7,1.7,1.5,2.5,2.3c0.4,0.4,0.9,0.8,1.3,1.3c0.5,0.5,0.9,0.9,1.4,1.4c0.5,0.5,0.9,1,1.4,1.5c0.5,0.5,0.9,1.1,1.4,1.6
	c0.9,1.1,1.8,2.4,2.6,3.7c0.4,0.7,0.8,1.4,1.1,2.1c0.3,0.7,0.6,1.5,0.9,2.3c0.1,0.2,0.1,0.4,0.2,0.6c0,0.1,0.1,0.2,0.1,0.3
	c0,0.1,0,0.2,0.1,0.3c0,0.1,0,0.2,0.1,0.3l0,0.2c0,0.1,0,0.1,0,0.2c0,0.1,0,0.2,0,0.3c0,0.1,0,0.2,0,0.3c0,0.5,0.1,0.9,0.1,1.4
	c0,0.5,0,0.9-0.1,1.4c-0.1,0.5-0.2,0.9-0.3,1.4c0,0.1-0.1,0.2-0.1,0.3l-0.1,0.2l0,0.1c0,0,0,0,0,0.1l0,0l-0.1,0.1l0,0.1c0,0,0,0,0,0
	l0,0l-0.1,0.2l0,0.1l0,0.1c-0.4,0.9-1,1.7-1.7,2.4c-0.7,0.7-1.4,1.4-2.2,1.9c-0.8,0.6-1.6,1-2.5,1.4c-0.9,0.4-1.7,0.8-2.6,1
	c-0.4,0.1-0.9,0.3-1.3,0.4c-0.4,0.1-0.9,0.2-1.4,0.3c-1.8,0.4-3.6,0.7-5.5,0.9c-0.9,0.1-1.8,0.2-2.7,0.2c-0.9,0.1-1.8,0.1-2.7,0.1
	c-1.8,0-3.6,0-5.4-0.1c-3.6-0.2-7-0.5-10.4-1c-3.3-0.5-6.5-1-9.6-1.6c-3-0.6-5.9-1.3-8.5-1.9c-2.6-0.7-5-1.3-7.1-1.9
	c-2.1-0.6-3.9-1.2-5.4-1.7c-1.5-0.5-2.7-0.9-3.5-1.1c-0.8-0.3-1.2-0.4-1.2-0.4l3.3-8.4c0,0,0.4,0.2,1.1,0.5c0.7,0.3,1.8,0.8,3.2,1.4
	c1.4,0.6,3.1,1.3,5.1,2c2,0.7,4.2,1.6,6.6,2.4c2.4,0.8,5.1,1.7,7.9,2.5c2.8,0.8,5.9,1.6,9,2.3c3.1,0.7,6.4,1.3,9.7,1.7
	c1.7,0.2,3.3,0.4,5,0.5c0.8,0.1,1.7,0.1,2.5,0.1c0.8,0,1.7,0,2.5,0c1.7,0,3.3-0.2,5-0.4c1.6-0.2,3.2-0.6,4.7-1.2
	c1.5-0.5,2.8-1.3,3.8-2.3c0.5-0.5,1-1,1.3-1.6l0-0.1l0,0l0.1-0.1l0,0c0,0,0,0,0,0l0-0.1l0.1-0.1l0,0c0,0,0,0,0,0l0-0.1l0.1-0.1
	c0-0.1,0.1-0.2,0.1-0.2c0.1-0.3,0.2-0.6,0.3-1c0.1-0.3,0.1-0.7,0.2-1c0-0.3,0-0.7,0-1.1c0-0.1,0-0.2,0-0.3c0-0.1,0-0.2,0-0.3
	c0,0,0-0.1,0-0.1l0-0.1c0-0.1,0-0.2,0-0.3c0-0.1,0-0.2,0-0.3c0-0.1,0-0.2,0-0.3c0-0.2-0.1-0.4-0.1-0.5c-0.2-0.7-0.4-1.4-0.6-2.1
	c-0.3-0.7-0.5-1.4-0.9-2c-0.6-1.3-1.4-2.5-2.1-3.7c-0.4-0.6-0.8-1.1-1.2-1.7c-0.4-0.5-0.8-1.1-1.2-1.6c-0.4-0.5-0.8-1-1.2-1.5
	c-0.4-0.5-0.8-0.9-1.2-1.4c-0.8-0.9-1.6-1.7-2.3-2.5c-1.5-1.5-2.9-2.8-4-3.8c-1.1-1-2.1-1.8-2.7-2.3c-0.3-0.3-0.6-0.5-0.7-0.6
	C455.2,190.8,455.1,190.8,455.1,190.8z"/>
    <g>
	<g>
		<path d="M376.7,179.2c0.9,1.3,3.1,3.8,5.9,5c3.6,1.5,6.3,0.3,7.4-2.3c1.4-3.4-0.8-6.1-3.8-7.4l-2.8-1.2l2.5-5.7l2.7,1.1
			c2.3,0.9,5.7,1.2,7-1.7c0.9-2,0.1-4.2-2.8-5.4c-2.4-1-5.5-0.9-7-0.6l1.1-6.4c2.3-0.6,6.4-0.3,10.2,1.3c6.3,2.7,8.1,8,6.1,12.7
			c-1.6,3.6-4.5,5.7-8.8,5.6l0,0.1c3.2,2.3,4.7,6.6,2.8,11c-2.6,6-9.1,8.5-16.5,5.3c-3.8-1.6-6.5-4.2-7.7-6.2L376.7,179.2z"/>
        <path class="st2" d="M380.4,190.8c-4-1.7-6.6-4.3-7.7-6.2l0,0l4-5.4l0,0c0.4,0.6,2.8,3.7,5.9,5c3.3,1.4,6.1,0.6,7.3-2.2
			c1.5-3.6-1.1-6.2-3.8-7.4l-2.8-1.2l2.5-5.8l2.7,1.2c2.4,1,5.7,1.1,6.9-1.7c0.9-2.2-0.1-4.3-2.8-5.4c-2.5-1.1-5.6-0.9-7-0.6l0,0
			l1.1-6.4l0,0c2.3-0.5,6.3-0.3,10.2,1.3c3,1.3,5.1,3.2,6.2,5.6c1,2.2,1,4.8,0,7.1c-0.8,1.8-1.9,3.3-3.4,4.2c-1.5,1-3.3,1.5-5.4,1.4
			l0,0.1c1.6,1.1,2.8,2.8,3.3,4.7c0.6,2,0.4,4.2-0.5,6.4c-0.6,1.5-1.5,2.8-2.6,3.8c-1.1,1-2.4,1.8-3.8,2.3
			C387.6,192.6,384.1,192.3,380.4,190.8z M372.8,184.6c1.1,1.8,3.7,4.4,7.7,6.2c7.2,3.1,13.8,1,16.5-5.3c1.8-4.2,0.7-8.6-2.8-11l0,0
			l0.1-0.1l0,0c4.1,0.1,7.2-1.9,8.8-5.6c1.8-4.2,0.6-9.8-6.1-12.7c-3.9-1.7-7.9-1.9-10.2-1.3l-1.1,6.3c1.5-0.3,4.5-0.5,7,0.6
			c1.4,0.6,2.4,1.4,2.8,2.4c0.4,0.9,0.4,2,0,3c-1.2,2.8-4.5,2.7-7,1.7l-2.7-1.1l-2.4,5.7l2.8,1.2c1.6,0.7,2.9,1.7,3.6,3
			c0.8,1.4,0.9,2.9,0.2,4.5c-0.6,1.3-1.5,2.3-2.8,2.7c-1.3,0.5-2.9,0.3-4.6-0.4c-3.2-1.4-5.5-4.4-5.9-5L372.8,184.6z"/>
	</g>
        <g>
		<path d="M428.3,176.9c-0.7-0.4-1.6-0.7-2.7-1c-6.4-2-10.6,0.4-13.1,4.1l0.1,0.1c2.2-1.1,4.7-1.2,7.4,0c4.9,2.1,7.4,8,4.3,15.1
			c-2.9,6.8-9.8,10.4-16.2,7.7c-7.8-3.4-8.8-11.8-5.3-19.9c2.8-6.4,7.1-10.9,11.7-13c4.3-1.8,8.8-1.9,13.5-0.2
			c1.3,0.4,2.1,0.8,2.8,1.1L428.3,176.9z M417.2,192.4c1.4-3.2,1.1-6.5-1.9-7.8c-1.9-0.8-4-0.1-5.4,1.3c-0.4,0.3-0.7,0.9-1.1,1.9
			c-1.4,3.7-1.3,7.6,1.8,8.9C413.1,197.8,415.7,195.9,417.2,192.4z"/>
            <path class="st2" d="M408.2,202.7c-1.9-0.8-3.5-2-4.6-3.4c-1.1-1.4-1.9-3-2.3-4.8c-0.4-1.7-0.4-3.7-0.1-5.7c0.3-2,0.9-4,1.8-6.1
			c1.3-3.1,3.1-5.9,5.2-8.1c2-2.2,4.2-3.8,6.6-4.8c4.3-1.8,8.8-1.9,13.6-0.2c0.7,0.2,1.3,0.5,1.9,0.7c0.3,0.1,0.6,0.3,0.9,0.4l0,0
			l-2.7,6.2l0,0c-0.2-0.1-0.4-0.2-0.6-0.3c-0.6-0.3-1.4-0.5-2.1-0.7c-7.4-2.4-11.4,1.5-13.1,4l0.1,0c2.3-1.2,4.8-1.2,7.4,0
			c2.5,1.1,4.3,3.1,5.2,5.7c0.9,2.8,0.6,6-0.8,9.4c-1.4,3.3-3.8,6-6.8,7.4C414.6,203.9,411.2,204,408.2,202.7z M430,170.3
			c-0.5-0.2-1.1-0.5-1.9-0.7c-4.7-1.7-9.3-1.7-13.5,0.2c-4.8,2.1-9.1,6.9-11.7,12.9c-3.9,9.1-1.8,16.9,5.3,19.9
			c6.2,2.7,13.1-0.6,16.2-7.7c2.8-6.5,1-12.7-4.3-15c-2.6-1.1-5.1-1.1-7.4,0l0,0l-0.2-0.1l0,0c1.4-2,3.1-3.4,5.1-4.2
			c2.4-0.9,5.1-0.9,8,0.1c0.7,0.2,1.4,0.5,2.1,0.8c0.2,0.1,0.4,0.2,0.6,0.3l2.6-6.1C430.7,170.6,430.4,170.5,430,170.3z
			 M410.6,196.8c-1.5-0.6-2.4-1.9-2.6-3.6c-0.2-1.5,0.1-3.4,0.8-5.4c0.4-0.9,0.8-1.5,1.1-1.9c1.5-1.5,3.7-2.1,5.4-1.3
			c1.4,0.6,2.3,1.7,2.6,3.2c0.3,1.3,0,3-0.7,4.6c-0.7,1.7-1.8,3.1-2.9,3.9C413.1,197.1,411.8,197.3,410.6,196.8z M415.3,184.7
			c-1.7-0.7-3.8-0.2-5.4,1.3c-0.4,0.3-0.7,0.9-1.1,1.9c-0.7,1.9-1,3.8-0.8,5.3c0.3,1.7,1.2,2.9,2.6,3.6c1.2,0.5,2.4,0.3,3.6-0.5
			c1.2-0.8,2.2-2.1,2.9-3.9c0.7-1.6,0.9-3.2,0.7-4.6C417.6,186.3,416.7,185.2,415.3,184.7z"/>
	</g>
        <g>
		<path d="M451.6,200.2c-4.5,10.6-11.3,16.2-18.8,13c-7.6-3.3-7.6-12.6-3.5-22.3c4.2-9.9,11.2-16.2,18.8-12.9
			C456,181.4,455.6,190.8,451.6,200.2z M436.2,193.9c-3.4,7.8-3.4,12.2-0.7,13.4c2.7,1.1,5.8-2.1,9.1-9.9c3.2-7.6,3.6-12.2,0.8-13.4
			C442.9,182.9,439.6,185.9,436.2,193.9z"/>
            <path class="st2" d="M432.8,213.2c-1.8-0.8-3.3-2-4.3-3.5c-1-1.4-1.6-3.2-1.8-5.3c-0.4-3.8,0.5-8.5,2.7-13.6
			c2.2-5.1,5-9.1,8.2-11.4c1.7-1.2,3.4-2,5.1-2.3c1.8-0.3,3.7,0,5.6,0.8c1.9,0.8,3.4,2,4.4,3.6c1,1.5,1.6,3.2,1.8,5.3
			c0.4,3.7-0.6,8.3-2.7,13.4c-2.3,5.4-5.2,9.4-8.3,11.7c-1.6,1.2-3.3,1.9-5.1,2.2C436.4,214.3,434.6,214,432.8,213.2z M448.1,178
			c-3.6-1.5-7.3-1-10.7,1.5c-3.1,2.3-6,6.3-8.1,11.4c-2.2,5.1-3.1,9.8-2.7,13.6c0.5,4.3,2.5,7.2,6.1,8.7c3.6,1.6,7.2,1.1,10.5-1.3
			c3.1-2.3,6-6.3,8.3-11.7c2.1-5,3.1-9.6,2.7-13.3C453.9,182.6,451.8,179.6,448.1,178z M435.5,207.3c-0.7-0.3-1.3-0.9-1.6-1.7
			c-0.4-1.1-0.5-2.6-0.1-4.5c0.4-2,1.2-4.4,2.4-7.2c2.3-5.5,4.8-8.9,7-9.8c0.8-0.3,1.5-0.3,2.2,0c1.4,0.6,2,2,1.9,4.3
			c-0.1,2.2-1,5.3-2.7,9.1c-1.7,3.8-3.3,6.6-4.8,8.3C438.3,207.3,436.9,207.8,435.5,207.3z M445.5,184c-0.7-0.3-1.4-0.3-2.2,0
			c-2.3,0.9-4.7,4.3-7,9.8c-1.2,2.8-2,5.2-2.4,7.2c-0.4,1.9-0.3,3.4,0.1,4.5c0.3,0.8,0.8,1.4,1.6,1.7c1.3,0.6,2.8,0,4.3-1.6
			c1.5-1.7,3.2-4.4,4.8-8.3c1.6-3.8,2.5-6.8,2.6-9.1C447.4,186,446.8,184.6,445.5,184z"/>
	</g>
</g>
    <g>
	<path class="st2" d="M465.2,181.7c-0.8,1.8-2.9,2.7-4.7,1.9c-1.8-0.8-2.7-2.9-1.9-4.7c0.8-1.8,2.9-2.7,4.7-1.9
		C465.1,177.8,466,179.9,465.2,181.7z"/>
        <path d="M460,184.8c-2.5-1.1-3.7-4-2.6-6.5s4-3.7,6.5-2.6c2.5,1.1,3.7,4,2.6,6.5C465.4,184.7,462.5,185.8,460,184.8z M462.8,178.2
		c-1.1-0.5-2.4,0-2.9,1.2c-0.5,1.1,0,2.4,1.2,2.9c1.1,0.5,2.4,0,2.9-1.2C464.4,180,463.9,178.7,462.8,178.2z"/>
</g>
</svg>
